<svg xmlns="http://www.w3.org/2000/svg" width="63.077" height="63.855" viewBox="0 0 63.077 63.855">
  <path id="hand-holding-dollar-solid" d="M34.167,2.993V4.3c.7.15,1.38.337,1.993.524a3.06,3.06,0,0,1,1.862,3.667,2.617,2.617,0,0,1-3.22,2.12A12.33,12.33,0,0,0,31.5,9.99a3.982,3.982,0,0,0-2.124.549,1.325,1.325,0,0,0-.383.374.657.657,0,0,0-.077.349v.075a1.305,1.305,0,0,0,.361.324,13.267,13.267,0,0,0,3,1.26l.1.037h0a16.04,16.04,0,0,1,4.15,1.908,6.729,6.729,0,0,1,2.891,5.6,7.105,7.105,0,0,1-2.924,6.049,7.634,7.634,0,0,1-2.333,1.1v1.322a2.822,2.822,0,0,1-2.628,2.993A2.822,2.822,0,0,1,28.9,28.934V27.513a29.6,29.6,0,0,1-2.8-.973c-.23-.087-.449-.175-.657-.249A3.106,3.106,0,0,1,23.775,22.5,2.573,2.573,0,0,1,27.1,20.6c.285.112.548.212.8.312a11.957,11.957,0,0,0,3.712,1.035,3.583,3.583,0,0,0,2.1-.511,1.086,1.086,0,0,0,.35-.362.936.936,0,0,0,.088-.511v-.025c0-.125,0-.262-.438-.574a12.39,12.39,0,0,0-2.968-1.285l-.208-.075a16.227,16.227,0,0,1-3.986-1.8,6.447,6.447,0,0,1-2.913-5.5A6.9,6.9,0,0,1,26.677,5.4a7.983,7.983,0,0,1,2.212-1.023V2.993A2.822,2.822,0,0,1,31.517,0a2.822,2.822,0,0,1,2.628,2.993ZM62.224,41.943a5.448,5.448,0,0,1-.931,6.972L47.429,60.55a13.735,13.735,0,0,1-8.837,3.305H3.5A3.767,3.767,0,0,1,0,59.864V51.883a3.767,3.767,0,0,1,3.5-3.991h4.03l4.917-4.49a12.962,12.962,0,0,1,8.761-3.492H38.548a3.767,3.767,0,0,1,3.5,3.991,3.767,3.767,0,0,1-3.5,3.991H29.787a2.012,2.012,0,0,0,0,3.991H42.994l13.108-11A4.039,4.039,0,0,1,62.224,41.943ZM21.2,47.892Z" fill="#2489b0"/>
</svg>
