<svg xmlns="http://www.w3.org/2000/svg" width="36.785" height="49.046" viewBox="0 0 36.785 49.046">
  <path id="hand-point-up-solid" d="M3.065,3.065a3.065,3.065,0,0,1,6.131,0V22.99H3.065ZM21.458,18.392a3.065,3.065,0,1,1,6.131,0v6.131a3.065,3.065,0,0,1-6.131,0Zm-6.131-6.131a3.062,3.062,0,0,1,3.065,3.065v4.6a3.065,3.065,0,0,1-6.131,0v-4.6A3.062,3.062,0,0,1,15.327,12.262Zm15.327,9.2a3.065,3.065,0,1,1,6.131,0v6.131a3.065,3.065,0,1,1-6.131,0Zm-9.2,8.43V29.83a6.127,6.127,0,0,0,6.476-.211,6.133,6.133,0,0,0,5.786,4.1,6.038,6.038,0,0,0,3.065-.824v.824A15.323,15.323,0,0,1,21.458,49.046h-5.91A15.329,15.329,0,0,1,4.713,44.554L3.592,43.442A12.269,12.269,0,0,1,0,34.773V32.187a6.136,6.136,0,0,1,6.131-6.131h8.43a3.832,3.832,0,1,1,0,7.663H9.2a1.533,1.533,0,0,0,0,3.065h5.364A6.893,6.893,0,0,0,21.458,29.888Z" fill="#2489b0"/>
</svg>
