<svg xmlns="http://www.w3.org/2000/svg" width="93.679" height="83.246" viewBox="0 0 93.679 83.246">
  <path id="kaaba-solid" d="M9.758,19.579,46.84,31.159l37.081-11.58L46.84,8ZM45.295.307a5.32,5.32,0,0,1,3.106,0L90.036,13.318a5.188,5.188,0,0,1,3.643,4.96v2.6h0v3.448L47.62,38.722a2.507,2.507,0,0,1-1.545,0L0,24.328v-6.05a5.182,5.182,0,0,1,3.659-4.96ZM49.182,43.7l44.5-13.906v7.563l-8.587,2.684A2.6,2.6,0,1,0,86.637,45l7.042-2.2V65.118a5.182,5.182,0,0,1-3.659,4.96L48.385,83.089a5.32,5.32,0,0,1-3.106,0L3.643,70.078A5.188,5.188,0,0,1,0,65.118V42.8L7.026,45a2.6,2.6,0,1,0,1.545-4.96L0,37.339V29.793L44.514,43.7a7.822,7.822,0,0,0,4.651,0Zm-30.169-.423a2.6,2.6,0,1,0-1.545,4.96l10.409,3.253a2.6,2.6,0,0,0,1.545-4.96Zm57.248,4.96a2.6,2.6,0,1,0-1.545-4.96L64.307,46.528a2.6,2.6,0,0,0,1.545,4.96ZM39.83,49.781a2.6,2.6,0,1,0-1.545,4.96l6.262,1.952a7.822,7.822,0,0,0,4.651,0l6.262-1.952a2.6,2.6,0,1,0-1.545-4.96l-6.262,1.952a2.507,2.507,0,0,1-1.545,0l-6.262-1.952Z" transform="translate(0 -0.075)" fill="#2489b0"/>
</svg>
