<svg xmlns="http://www.w3.org/2000/svg" width="69.001" height="55.201" viewBox="0 0 69.001 55.201">
  <path id="mosque-solid" d="M43.125,0a1.736,1.736,0,0,1,1.38.69c3.741,4.992,8.42,8.075,14.393,12.021h0c.561.367,1.132.755,1.725,1.143a11.118,11.118,0,0,1,4.927,9.283,11.265,11.265,0,0,1-3.213,7.914H23.913A11.35,11.35,0,0,1,20.7,23.137a11.091,11.091,0,0,1,4.927-9.283c.582-.388,1.164-.765,1.725-1.143h0C33.325,8.765,38,5.682,41.745.69A1.736,1.736,0,0,1,43.125,0ZM31.05,55.2V47.438a2.588,2.588,0,0,0-5.175,0V55.2H20.7a3.446,3.446,0,0,1-3.45-3.45V37.95A3.446,3.446,0,0,1,20.7,34.5h44.85A3.446,3.446,0,0,1,69,37.95v13.8a3.446,3.446,0,0,1-3.45,3.45H60.376V47.438a2.588,2.588,0,0,0-5.175,0V55.2H48.3V48.947a6.907,6.907,0,0,0-2.48-5.3l-2.7-2.243-2.7,2.243a6.907,6.907,0,0,0-2.48,5.3V55.2ZM7.59.561a1.714,1.714,0,0,1,2.07,0l1.725,1.294a14.68,14.68,0,0,1,5.865,11.73V13.8H0v-.216A14.68,14.68,0,0,1,5.865,1.854L7.59.561ZM0,17.25H17.25V31.977A6.9,6.9,0,0,0,13.8,37.95v13.8a6.984,6.984,0,0,0,.625,2.889,5.106,5.106,0,0,1-2.35.561h-6.9A5.176,5.176,0,0,1,0,50.025V17.25Z" fill="#2489b0"/>
</svg>
