<svg xmlns="http://www.w3.org/2000/svg" width="38.485" height="48.991" viewBox="0 0 38.485 48.991">
  <path id="person-praying-solid" d="M32.082,6.124A6.275,6.275,0,0,0,25.666,0a6.275,6.275,0,0,0-6.416,6.124,6.275,6.275,0,0,0,6.416,6.124,6.275,6.275,0,0,0,6.416-6.124ZM20.122,25.261l2.3,3.014a4.042,4.042,0,0,0,2.727,1.541,4.124,4.124,0,0,0,3.048-.832l8.823-6.889a3.71,3.71,0,0,0,.561-5.387,4.143,4.143,0,0,0-5.644-.536L26.4,20.5l-2.627-3.445a8.541,8.541,0,0,0-14.106.976L4.792,26.878a8.186,8.186,0,0,0,2.567,10.7l5.334,3.76H4.01a3.832,3.832,0,1,0,0,7.655H24.864a4,4,0,0,0,3.81-2.631,3.731,3.731,0,0,0-1.424-4.277l-11.64-8.21Z" fill="#2489b0"/>
</svg>
